{
  "accessors": [
    {
      "bufferView": 2,
      "componentType": 5126,
      "count": 1059,
      "max": [
        8.465800285339355,
        3.775700092315674,
        22.049299240112305
      ],
      "min": [
        -8.465800285339355,
        -3.775700092315674,
        -16.917200088500977
      ],
      "type": "VEC3"
    },
    {
      "bufferView": 2,
      "byteOffset": 12708,
      "componentType": 5126,
      "count": 1059,
      "max": [
        0.9999885559082031,
        0.9999897480010986,
        1.0
      ],
      "min": [
        -0.9999885559082031,
        -0.9999897480010986,
        -1.0
      ],
      "type": "VEC3"
    },
    {
      "bufferView": 3,
      "componentType": 5126,
      "count": 1059,
      "max": [
        1.0,
        0.9998622536659241,
        0.9999655485153198,
        1.0
      ],
      "min": [
        -1.0,
        -0.9999825358390808,
        -0.9999655485153198,
        -1.0
      ],
      "type": "VEC4"
    },
    {
      "bufferView": 1,
      "componentType": 5126,
      "count": 1059,
      "max": [
        0.9767000079154968,
        0.987500011920929
      ],
      "min": [
        0.0020000000949949026,
        0.0020000000949949026
      ],
      "type": "VEC2"
    },
    {
      "bufferView": 0,
      "componentType": 5125,
      "count": 4380,
      "type": "SCALAR"
    }
  ],
  "asset": {
    "extras": {
      "author": "J_Son (https://sketchfab.com/rebro.edge)",
      "license": "CC-BY-4.0 (http://creativecommons.org/licenses/by/4.0/)",
      "source": "https://sketchfab.com/3d-models/health-potion-f35ce76caa4d4676ac57a1be1972d224",
      "title": "Health Potion"
    },
    "generator": "Sketchfab-12.74.0",
    "version": "2.0"
  },
  "bufferViews": [
    {
      "buffer": 0,
      "byteLength": 17520,
      "name": "floatBufferViews",
      "target": 34963
    },
    {
      "buffer": 0,
      "byteLength": 8472,
      "byteOffset": 17520,
      "byteStride": 8,
      "name": "floatBufferViews",
      "target": 34962
    },
    {
      "buffer": 0,
      "byteLength": 25416,
      "byteOffset": 25992,
      "byteStride": 12,
      "name": "floatBufferViews",
      "target": 34962
    },
    {
      "buffer": 0,
      "byteLength": 16944,
      "byteOffset": 51408,
      "byteStride": 16,
      "name": "floatBufferViews",
      "target": 34962
    }
  ],
  "buffers": [
    {
      "byteLength": 68352,
      "uri": "scene.bin"
    }
  ],
  "images": [
    {
      "uri": "textures/defaultMat_baseColor.png"
    },
    {
      "uri": "textures/defaultMat_metallicRoughness.png"
    },
    {
      "uri": "textures/defaultMat_emissive.png"
    },
    {
      "uri": "textures/defaultMat_normal.png"
    }
  ],
  "materials": [
    {
      "doubleSided": true,
      "emissiveFactor": [
        1.0,
        1.0,
        1.0
      ],
      "emissiveTexture": {
        "index": 2
      },
      "name": "defaultMat",
      "normalTexture": {
        "index": 3
      },
      "pbrMetallicRoughness": {
        "baseColorTexture": {
          "index": 0
        },
        "metallicRoughnessTexture": {
          "index": 1
        }
      }
    }
  ],
  "meshes": [
    {
      "name": "Object_0",
      "primitives": [
        {
          "attributes": {
            "NORMAL": 1,
            "POSITION": 0,
            "TANGENT": 2,
            "TEXCOORD_0": 3
          },
          "indices": 4,
          "material": 0,
          "mode": 4
        }
      ]
    }
  ],
  "nodes": [
    {
      "children": [
        1
      ],
      "matrix": [
        0.022882603108882904,
        0.0,
        0.0,
        0.0,
        0.0,
        5.0809585669681976e-18,
        -0.022882603108882904,
        0.0,
        0.0,
        0.022882603108882904,
        5.0809585669681976e-18,
        0.0,
        0.0,
        0.0,
        0.0,
        1.0
      ],
      "name": "Sketchfab_model"
    },
    {
      "children": [
        2
      ],
      "name": "bfc08e8f24a04e2eae2106f8c0ab1156.obj.cleaner.materialmerger.gles"
    },
    {
      "mesh": 0,
      "name": "Object_2"
    }
  ],
  "samplers": [
    {
      "magFilter": 9729,
      "minFilter": 9987,
      "wrapS": 10497,
      "wrapT": 10497
    }
  ],
  "scene": 0,
  "scenes": [
    {
      "name": "Sketchfab_Scene",
      "nodes": [
        0
      ]
    }
  ],
  "textures": [
    {
      "sampler": 0,
      "source": 0
    },
    {
      "sampler": 0,
      "source": 1
    },
    {
      "sampler": 0,
      "source": 2
    },
    {
      "sampler": 0,
      "source": 3
    }
  ]
}
